#define calculator2_width 16
#define calculator2_height 16
static char calculator2_bits[] = {
  0x07, 0xE0, 0xFB, 0xDF, 0x4B, 0xD5, 0x9B, 0xD2, 0x0B, 0xD0, 0xFB, 0xDF, 
  0xFB, 0xDF, 0x4B, 0xD2, 0xFB, 0xDF, 0x4B, 0xD2, 0xFB, 0xDF, 0x4B, 0xD2, 
  0xFB, 0xDF, 0x4B, 0xD2, 0xFB, 0xDF, 0x07, 0xE0, };
